<svg width="40" height="40" viewBox="0 0 40 40" fill="none" xmlns="http://www.w3.org/2000/svg">
<path d="M20.1429 0.83252C9.4643 0.83252 0.797638 9.49919 0.797638 20.1778C0.797638 30.8563 9.4643 39.523 20.1429 39.523C30.8214 39.523 39.4881 30.8563 39.4881 20.1778C39.4881 9.49919 30.8214 0.83252 20.1429 0.83252ZM29.1191 13.9873C28.8289 17.0438 27.5714 24.4724 26.9331 27.8965C26.6622 29.3474 26.1206 29.831 25.6176 29.8891C24.4956 29.9858 23.6444 29.154 22.561 28.4382C20.8587 27.3162 19.8914 26.6197 18.247 25.5364C16.3319 24.2789 17.57 23.5825 18.6726 22.4605C18.9628 22.1703 23.9152 17.6629 24.0119 17.2566C24.0254 17.1951 24.0236 17.1312 24.0067 17.0705C23.9899 17.0098 23.9584 16.9542 23.9152 16.9084C23.7991 16.8117 23.6444 16.8504 23.5089 16.8697C23.3348 16.9084 20.6265 18.7075 15.3453 22.267C14.5714 22.7894 13.875 23.0602 13.256 23.0409C12.5595 23.0215 11.2441 22.6539 10.2575 22.3251C9.03871 21.9382 8.09079 21.7254 8.16817 21.0483C8.20686 20.7001 8.6905 20.3519 9.59972 19.9843C15.2485 17.5275 19.0015 15.9025 20.878 15.1287C26.256 12.8846 27.3587 12.4977 28.0938 12.4977C28.2485 12.4977 28.6161 12.5364 28.8482 12.7298C29.0417 12.8846 29.0997 13.0974 29.1191 13.2522C29.0997 13.3682 29.1384 13.7164 29.1191 13.9873Z" fill="white"/>
</svg>
