<svg width="37" height="37" viewBox="0 0 37 37" fill="none" xmlns="http://www.w3.org/2000/svg">
<path d="M18.4999 22.2917L5.22908 35.5625C4.73256 36.059 4.10061 36.3073 3.33325 36.3073C2.56589 36.3073 1.93395 36.059 1.43742 35.5625C0.94089 35.066 0.692627 34.434 0.692627 33.6667C0.692627 32.8993 0.94089 32.2674 1.43742 31.7708L14.7083 18.5L1.43742 5.22918C0.94089 4.73265 0.692627 4.1007 0.692627 3.33334C0.692627 2.56598 0.94089 1.93404 1.43742 1.43751C1.93395 0.940981 2.56589 0.692719 3.33325 0.692719C4.10061 0.692719 4.73256 0.940981 5.22908 1.43751L18.4999 14.7083L31.7708 1.43751C32.2673 0.940981 32.8992 0.692719 33.6666 0.692719C34.4339 0.692719 35.0659 0.940981 35.5624 1.43751C36.0589 1.93404 36.3072 2.56598 36.3072 3.33334C36.3072 4.1007 36.0589 4.73265 35.5624 5.22918L22.2916 18.5L35.5624 31.7708C36.0589 32.2674 36.3072 32.8993 36.3072 33.6667C36.3072 34.434 36.0589 35.066 35.5624 35.5625C35.0659 36.059 34.4339 36.3073 33.6666 36.3073C32.8992 36.3073 32.2673 36.059 31.7708 35.5625L18.4999 22.2917Z" fill="#1C1C1C"/>
</svg>
