<svg width="38" height="38" viewBox="0 0 38 38" fill="none" xmlns="http://www.w3.org/2000/svg">
<path d="M6.13958 6.31943C5.42291 7.04651 4.95208 8.06735 4.68958 10.0069C4.42083 12.0173 4.41875 14.6798 4.41875 18.5111V19.8444C4.41875 23.6694 4.42083 26.3298 4.68958 28.3382C4.95 30.2798 5.42291 31.3069 6.14166 32.0403C6.87083 32.7548 7.89166 33.2278 9.82916 33.4882C11.8396 33.7569 14.5021 33.7611 18.3333 33.7611H19.6667C23.4917 33.7611 26.1521 33.7569 28.1625 33.4882C30.1021 33.2278 31.1292 32.7548 31.8625 32.0361C32.5771 31.309 33.05 30.2882 33.3104 28.3486C33.5812 26.3382 33.5833 23.6757 33.5833 19.8444V18.5111C33.5833 14.6861 33.5792 12.0257 33.3125 10.0173C33.05 8.07568 32.5771 7.0486 31.8583 6.31526C31.1312 5.60068 30.1104 5.12776 28.1708 4.86735C26.1604 4.5986 23.4979 4.59443 19.6667 4.59443H18.3333C14.5083 4.59443 11.8479 4.5986 9.83958 4.86735C7.89791 5.12776 6.87291 5.60068 6.13958 6.31943ZM18.3333 0.427763H19.6667C22.6771 0.427763 25.7333 0.338179 28.7229 0.738179C31.1312 1.0611 33.1708 1.75068 34.8 3.36318L34.8167 3.38193C36.4271 5.01526 37.1187 7.05485 37.4417 9.46526C37.8396 12.4507 37.75 15.5048 37.75 18.5111V19.8444C37.75 22.8528 37.8417 25.909 37.4396 28.9007C37.1187 31.309 36.4271 33.3486 34.8146 34.9778L34.7958 34.9944C33.1646 36.6048 31.125 37.2944 28.7125 37.6194C25.7271 38.0173 22.6729 37.9278 19.6667 37.9278H18.3333C15.325 37.9278 12.2687 38.0173 9.27916 37.6173C6.86875 37.2944 4.82916 36.6048 3.20208 34.9923L3.18333 34.9736C1.575 33.3403 0.883331 31.3007 0.560414 28.8903C0.160414 25.9069 0.249998 22.8528 0.249998 19.8444V18.5111C0.249998 15.5028 0.160414 12.4465 0.562498 9.45485C0.883331 7.04651 1.575 5.00693 3.1875 3.37776L3.20416 3.3611C4.8375 1.75068 6.87708 1.0611 9.2875 0.736096C12.275 0.340263 15.3292 0.427763 18.3333 0.427763ZM6.575 11.8403C6.775 21.5903 11.65 27.4403 20.2 27.4403H20.7V21.8653C23.8375 22.1778 26.2125 24.4778 27.1625 27.4403H31.6C31.1451 25.7567 30.3384 24.1888 29.233 22.84C28.1277 21.4912 26.7488 20.3921 25.1875 19.6153C26.5863 18.7632 27.7944 17.6318 28.7364 16.292C29.6784 14.9521 30.3341 13.4324 30.6625 11.8278H26.6375C25.7625 14.9278 23.1625 17.7403 20.7 18.0028V11.8403H16.6625V22.6403C14.1625 22.0153 11.0125 18.9903 10.875 11.8403H6.575Z" fill="white"/>
</svg>
