<svg width="38" height="39" viewBox="0 0 38 39" fill="none" xmlns="http://www.w3.org/2000/svg">
<path d="M10.9884 0.733154H26.8217C32.8534 0.733154 37.7542 5.63395 37.7542 11.6657V27.499C37.7542 30.3985 36.6024 33.1793 34.5522 35.2295C32.5019 37.2798 29.7212 38.4316 26.8217 38.4316H10.9884C4.95661 38.4316 0.0558167 33.5308 0.0558167 27.499V11.6657C0.0558167 8.7662 1.20763 5.98547 3.25788 3.93522C5.30813 1.88497 8.08887 0.733154 10.9884 0.733154ZM10.6114 4.503C8.81169 4.503 7.08572 5.21792 5.81315 6.49049C4.54058 7.76305 3.82566 9.48903 3.82566 11.2887V27.876C3.82566 31.627 6.86038 34.6617 10.6114 34.6617H27.1987C28.9984 34.6617 30.7243 33.9468 31.9969 32.6742C33.2695 31.4017 33.9844 29.6757 33.9844 27.876V11.2887C33.9844 7.53772 30.9497 4.503 27.1987 4.503H10.6114ZM28.8009 7.33038C29.4257 7.33038 30.025 7.57861 30.4669 8.02048C30.9088 8.46234 31.157 9.06164 31.157 9.68653C31.157 10.3114 30.9088 10.9107 30.4669 11.3526C30.025 11.7944 29.4257 12.0427 28.8009 12.0427C28.176 12.0427 27.5767 11.7944 27.1348 11.3526C26.6929 10.9107 26.4447 10.3114 26.4447 9.68653C26.4447 9.06164 26.6929 8.46234 27.1348 8.02048C27.5767 7.57861 28.176 7.33038 28.8009 7.33038ZM18.905 10.1578C21.4046 10.1578 23.8018 11.1507 25.5692 12.9182C27.3367 14.6856 28.3296 17.0828 28.3296 19.5824C28.3296 22.0819 27.3367 24.4791 25.5692 26.2466C23.8018 28.014 21.4046 29.007 18.905 29.007C16.4055 29.007 14.0083 28.014 12.2408 26.2466C10.4734 24.4791 9.48042 22.0819 9.48042 19.5824C9.48042 17.0828 10.4734 14.6856 12.2408 12.9182C14.0083 11.1507 16.4055 10.1578 18.905 10.1578ZM18.905 13.9276C17.4053 13.9276 15.967 14.5234 14.9065 15.5838C13.846 16.6443 13.2503 18.0826 13.2503 19.5824C13.2503 21.0821 13.846 22.5204 14.9065 23.5809C15.967 24.6414 17.4053 25.2371 18.905 25.2371C20.4048 25.2371 21.8431 24.6414 22.9035 23.5809C23.964 22.5204 24.5598 21.0821 24.5598 19.5824C24.5598 18.0826 23.964 16.6443 22.9035 15.5838C21.8431 14.5234 20.4048 13.9276 18.905 13.9276Z" fill="white"/>
</svg>
