<svg width="37" height="32" viewBox="0 0 37 32" fill="none" xmlns="http://www.w3.org/2000/svg">
<path fill-rule="evenodd" clip-rule="evenodd" d="M2.88886 3.32032C4.72876 1.48142 7.22388 0.448383 9.8255 0.448383C12.4271 0.448383 14.9222 1.48142 16.7621 3.32032C17.1219 3.67867 17.585 4.12465 18.1514 4.65826C18.7166 4.12465 19.179 3.67867 19.5388 3.32032C21.3709 1.49717 23.8488 0.470584 26.4338 0.463662C29.0189 0.456741 31.5022 1.47004 33.3441 3.28335C35.186 5.09666 36.2377 7.56346 36.2707 10.1477C36.3036 12.7319 35.3151 15.2246 33.52 17.0843L19.5368 31.064C19.1688 31.4318 18.6698 31.6384 18.1495 31.6384C17.6291 31.6384 17.1301 31.4318 16.7621 31.064L2.77897 17.0862C0.985535 15.237 -0.00841672 12.7568 0.0117764 10.1812C0.0319695 7.60552 1.06665 5.14117 2.88886 3.32032Z" fill="white"/>
</svg>
