<svg width="37" height="32" viewBox="0 0 37 32" fill="none" xmlns="http://www.w3.org/2000/svg">
<path fill-rule="evenodd" clip-rule="evenodd" d="M31.7665 15.7631C33.1512 14.3566 33.9204 12.4577 33.905 10.484C33.8895 8.51039 33.0907 6.6237 31.6842 5.23903C30.9878 4.55341 30.1632 4.01167 29.2574 3.64475C28.3516 3.27783 27.3824 3.09291 26.4052 3.10055C24.4315 3.11597 22.5448 3.91479 21.1601 5.32128C20.7841 5.69728 20.3063 6.1588 19.7266 6.70582L18.1149 8.22353L16.5032 6.70582C15.9223 6.15749 15.4438 5.69598 15.0678 5.32128C13.6722 3.92571 11.7794 3.14168 9.80573 3.14168C7.83208 3.14168 5.93927 3.92571 4.54369 5.32128C1.66885 8.19807 1.63556 12.8491 4.43794 15.7396L18.1149 29.4166L31.7665 15.7631ZM2.88106 3.66061C3.79034 2.7511 4.86988 2.02962 6.05803 1.53738C7.24617 1.04514 8.51965 0.791789 9.80573 0.791789C11.0918 0.791789 12.3653 1.04514 13.5534 1.53738C14.7416 2.02962 15.8211 2.7511 16.7304 3.66061C17.0868 4.01834 17.5483 4.46353 18.1149 4.9962C18.6789 4.46353 19.1405 4.01768 19.4995 3.65866C21.3217 1.80836 23.8044 0.757728 26.4013 0.737896C28.9982 0.718064 31.4966 1.73065 33.3469 3.55291C35.1972 5.37516 36.2478 7.85781 36.2676 10.4547C36.2874 13.0516 35.2749 15.55 33.4526 17.4003L19.4995 31.3554C19.1322 31.7225 18.6342 31.9287 18.1149 31.9287C17.5957 31.9287 17.0976 31.7225 16.7304 31.3554L2.77336 17.3983C0.983518 15.5524 -0.00843781 13.0765 0.0117147 10.5054C0.0318673 7.93434 1.06251 5.47434 2.88106 3.6567V3.66061Z" fill="white"/>
</svg>
