<svg width="142" height="82" viewBox="0 0 142 82" fill="none" xmlns="http://www.w3.org/2000/svg">
<path d="M7.384 76.288C6.216 76.288 5.056 76.136 3.904 75.832C2.752 75.512 1.776 75.064 0.976 74.488L2.488 71.512C3.128 71.976 3.872 72.344 4.72 72.616C5.568 72.888 6.424 73.024 7.288 73.024C8.264 73.024 9.032 72.832 9.592 72.448C10.152 72.064 10.432 71.536 10.432 70.864C10.432 70.224 10.184 69.72 9.688 69.352C9.192 68.984 8.392 68.8 7.288 68.8H5.512V66.232L10.192 60.928L10.624 62.32H1.816V59.2H13.576V61.72L8.92 67.024L6.952 65.896H8.08C10.144 65.896 11.704 66.36 12.76 67.288C13.816 68.216 14.344 69.408 14.344 70.864C14.344 71.808 14.096 72.696 13.6 73.528C13.104 74.344 12.344 75.008 11.32 75.52C10.296 76.032 8.984 76.288 7.384 76.288ZM17.1951 76V59.2H24.8271C26.6511 59.2 28.2591 59.552 29.6511 60.256C31.0431 60.944 32.1311 61.912 32.9151 63.16C33.6991 64.408 34.0911 65.888 34.0911 67.6C34.0911 69.296 33.6991 70.776 32.9151 72.04C32.1311 73.288 31.0431 74.264 29.6511 74.968C28.2591 75.656 26.6511 76 24.8271 76H17.1951ZM21.0831 72.808H24.6351C25.7551 72.808 26.7231 72.6 27.5391 72.184C28.3711 71.752 29.0111 71.144 29.4591 70.36C29.9231 69.576 30.1551 68.656 30.1551 67.6C30.1551 66.528 29.9231 65.608 29.4591 64.84C29.0111 64.056 28.3711 63.456 27.5391 63.04C26.7231 62.608 25.7551 62.392 24.6351 62.392H21.0831V72.808ZM40.5993 65.968H48.6873V68.992H40.5993V65.968ZM40.8873 72.88H50.0312V76H37.0233V59.2H49.7193V62.32H40.8873V72.88ZM60.7088 62.896C61.7328 62.896 62.6448 63.104 63.4448 63.52C64.2608 63.92 64.9008 64.544 65.3648 65.392C65.8288 66.224 66.0608 67.296 66.0608 68.608V76H62.3168V69.184C62.3168 68.144 62.0848 67.376 61.6208 66.88C61.1728 66.384 60.5328 66.136 59.7008 66.136C59.1088 66.136 58.5728 66.264 58.0928 66.52C57.6288 66.76 57.2608 67.136 56.9888 67.648C56.7328 68.16 56.6048 68.816 56.6048 69.616V76H52.8608V63.088H56.4368V66.664L55.7648 65.584C56.2288 64.72 56.8928 64.056 57.7568 63.592C58.6208 63.128 59.6048 62.896 60.7088 62.896ZM72.7242 76L67.3002 63.088H71.1642L75.6762 74.2H73.7562L78.4362 63.088H82.0362L76.5882 76H72.7242ZM83.5639 76V63.088H87.3079V76H83.5639ZM85.4359 61.288C84.7479 61.288 84.1879 61.088 83.7559 60.688C83.3239 60.288 83.1079 59.792 83.1079 59.2C83.1079 58.608 83.3239 58.112 83.7559 57.712C84.1879 57.312 84.7479 57.112 85.4359 57.112C86.1239 57.112 86.6839 57.304 87.1159 57.688C87.5479 58.056 87.7639 58.536 87.7639 59.128C87.7639 59.752 87.5479 60.272 87.1159 60.688C86.6999 61.088 86.1399 61.288 85.4359 61.288ZM95.1267 76.192C94.0227 76.192 92.9587 76.064 91.9347 75.808C90.9267 75.536 90.1267 75.2 89.5347 74.8L90.7827 72.112C91.3747 72.48 92.0707 72.784 92.8707 73.024C93.6867 73.248 94.4867 73.36 95.2707 73.36C96.1347 73.36 96.7427 73.256 97.0947 73.048C97.4627 72.84 97.6467 72.552 97.6467 72.184C97.6467 71.88 97.5027 71.656 97.2147 71.512C96.9427 71.352 96.5747 71.232 96.1107 71.152C95.6467 71.072 95.1347 70.992 94.5747 70.912C94.0307 70.832 93.4787 70.728 92.9187 70.6C92.3587 70.456 91.8467 70.248 91.3827 69.976C90.9187 69.704 90.5427 69.336 90.2547 68.872C89.9827 68.408 89.8467 67.808 89.8467 67.072C89.8467 66.256 90.0787 65.536 90.5427 64.912C91.0227 64.288 91.7107 63.8 92.6067 63.448C93.5027 63.08 94.5747 62.896 95.8227 62.896C96.7027 62.896 97.5987 62.992 98.5107 63.184C99.4227 63.376 100.183 63.656 100.791 64.024L99.5427 66.688C98.9187 66.32 98.2867 66.072 97.6467 65.944C97.0227 65.8 96.4147 65.728 95.8227 65.728C94.9907 65.728 94.3827 65.84 93.9987 66.064C93.6147 66.288 93.4227 66.576 93.4227 66.928C93.4227 67.248 93.5587 67.488 93.8307 67.648C94.1187 67.808 94.4947 67.936 94.9587 68.032C95.4227 68.128 95.9267 68.216 96.4707 68.296C97.0307 68.36 97.5907 68.464 98.1507 68.608C98.7107 68.752 99.2147 68.96 99.6627 69.232C100.127 69.488 100.503 69.848 100.791 70.312C101.079 70.76 101.223 71.352 101.223 72.088C101.223 72.888 100.983 73.6 100.503 74.224C100.023 74.832 99.3267 75.312 98.4147 75.664C97.5187 76.016 96.4227 76.192 95.1267 76.192ZM103.533 76V63.088H107.277V76H103.533ZM105.405 61.288C104.717 61.288 104.157 61.088 103.725 60.688C103.293 60.288 103.077 59.792 103.077 59.2C103.077 58.608 103.293 58.112 103.725 57.712C104.157 57.312 104.717 57.112 105.405 57.112C106.093 57.112 106.653 57.304 107.085 57.688C107.517 58.056 107.733 58.536 107.733 59.128C107.733 59.752 107.517 60.272 107.085 60.688C106.669 61.088 106.109 61.288 105.405 61.288ZM116.895 76.192C115.519 76.192 114.295 75.904 113.223 75.328C112.167 74.752 111.327 73.968 110.703 72.976C110.095 71.968 109.791 70.824 109.791 69.544C109.791 68.248 110.095 67.104 110.703 66.112C111.327 65.104 112.167 64.32 113.223 63.76C114.295 63.184 115.519 62.896 116.895 62.896C118.255 62.896 119.471 63.184 120.543 63.76C121.615 64.32 122.455 65.096 123.063 66.088C123.671 67.08 123.975 68.232 123.975 69.544C123.975 70.824 123.671 71.968 123.063 72.976C122.455 73.968 121.615 74.752 120.543 75.328C119.471 75.904 118.255 76.192 116.895 76.192ZM116.895 73.12C117.519 73.12 118.079 72.976 118.575 72.688C119.071 72.4 119.463 71.992 119.751 71.464C120.039 70.92 120.183 70.28 120.183 69.544C120.183 68.792 120.039 68.152 119.751 67.624C119.463 67.096 119.071 66.688 118.575 66.4C118.079 66.112 117.519 65.968 116.895 65.968C116.271 65.968 115.711 66.112 115.215 66.4C114.719 66.688 114.319 67.096 114.015 67.624C113.727 68.152 113.583 68.792 113.583 69.544C113.583 70.28 113.727 70.92 114.015 71.464C114.319 71.992 114.719 72.4 115.215 72.688C115.711 72.976 116.271 73.12 116.895 73.12ZM134.326 62.896C135.35 62.896 136.262 63.104 137.062 63.52C137.878 63.92 138.518 64.544 138.982 65.392C139.446 66.224 139.678 67.296 139.678 68.608V76H135.934V69.184C135.934 68.144 135.702 67.376 135.238 66.88C134.79 66.384 134.15 66.136 133.318 66.136C132.726 66.136 132.19 66.264 131.71 66.52C131.246 66.76 130.878 67.136 130.606 67.648C130.35 68.16 130.222 68.816 130.222 69.616V76H126.478V63.088H130.054V66.664L129.382 65.584C129.846 64.72 130.51 64.056 131.374 63.592C132.238 63.128 133.222 62.896 134.326 62.896Z" fill="#1C1C1C"/>
<g clip-path="url(#clip0_26_60)">
<path fill-rule="evenodd" clip-rule="evenodd" d="M56.111 28.3083L48.594 30.9121L50.3725 18.8695L56.111 28.3083Z" fill="#1C1C1C"/>
<path fill-rule="evenodd" clip-rule="evenodd" d="M57.566 40.7579L48.9175 32.2139L56.4344 29.6102L57.566 40.7579Z" fill="#1C1C1C"/>
<path fill-rule="evenodd" clip-rule="evenodd" d="M57.566 42.3854L51.2614 35.8753L56.758 43.1988L57.566 42.3854Z" fill="#1C1C1C"/>
<path fill-rule="evenodd" clip-rule="evenodd" d="M57.4042 43.8501L58.6975 42.629L67.1041 46.9417L57.4042 43.8501Z" fill="#1C1C1C"/>
<path fill-rule="evenodd" clip-rule="evenodd" d="M70.0949 38.9676L58.6173 41.5714L57.566 29.773L70.0949 38.9676Z" fill="#1C1C1C"/>
<path fill-rule="evenodd" clip-rule="evenodd" d="M70.661 48V39.9445L59.8297 42.1412L70.661 48Z" fill="#1C1C1C"/>
<path fill-rule="evenodd" clip-rule="evenodd" d="M83.0276 42.2226L71.6308 48V39.7003L83.0276 42.2226Z" fill="#1C1C1C"/>
<path fill-rule="evenodd" clip-rule="evenodd" d="M84.7252 43.8501L74.9452 47.1859L84.2406 42.4668L84.7252 43.8501Z" fill="#1C1C1C"/>
<path fill-rule="evenodd" clip-rule="evenodd" d="M85.4227 43.4709L84.8452 42.0937L91.3175 35.4866L85.4227 43.4709Z" fill="#1C1C1C"/>
<path fill-rule="evenodd" clip-rule="evenodd" d="M83.9805 41.7199L72.0965 39.1005L84.9125 29.718L83.9805 41.7199Z" fill="#1C1C1C"/>
<path fill-rule="evenodd" clip-rule="evenodd" d="M93.5341 32.0633L84.835 40.8596L85.8837 29.6006L93.5341 32.0633Z" fill="#1C1C1C"/>
<path fill-rule="evenodd" clip-rule="evenodd" d="M93.6507 30.9297L86.1553 28.3884L92.0191 18.5757L93.6507 30.9297Z" fill="#1C1C1C"/>
<path fill-rule="evenodd" clip-rule="evenodd" d="M93.9998 17.5981L93.8057 25.613L92.7186 17.6768L93.9998 17.5981Z" fill="#1C1C1C"/>
<path fill-rule="evenodd" clip-rule="evenodd" d="M93.7895 16.6578L92.2914 16.7386L88.2134 9.0365L93.7895 16.6578Z" fill="#1C1C1C"/>
<path fill-rule="evenodd" clip-rule="evenodd" d="M91.5379 17.6151L85.4813 27.6143L80.6971 12.9211L91.5379 17.6151Z" fill="#1C1C1C"/>
<path fill-rule="evenodd" clip-rule="evenodd" d="M90.9623 16.2433L80.7578 11.7013L85.542 5.14716L90.9623 16.2433Z" fill="#1C1C1C"/>
<path fill-rule="evenodd" clip-rule="evenodd" d="M84.6638 4.72111L79.7886 11.0616L72.1571 2.52576L84.6638 4.72111Z" fill="#1C1C1C"/>
<path fill-rule="evenodd" clip-rule="evenodd" d="M71.128 2.70892L78.8499 11.4883H63.4365L71.128 2.70892Z" fill="#1C1C1C"/>
<path fill-rule="evenodd" clip-rule="evenodd" d="M81.4917 3.30253L71.7325 1.578L71.7413 0L81.4917 3.30253Z" fill="#1C1C1C"/>
<path fill-rule="evenodd" clip-rule="evenodd" d="M84.5055 28.8341L71.5971 38.2308L71.6261 24.8192L84.5055 28.8341Z" fill="#1C1C1C"/>
<path fill-rule="evenodd" clip-rule="evenodd" d="M79.8089 12.8655L84.4758 27.9121L71.9516 23.868L79.8089 12.8655Z" fill="#1C1C1C"/>
<path fill-rule="evenodd" clip-rule="evenodd" d="M63.1487 12.3302L71.2129 23.0648L78.893 12.4788L63.1487 12.3302Z" fill="#1C1C1C"/>
<path fill-rule="evenodd" clip-rule="evenodd" d="M57.7722 4.62814L62.3805 10.9917L70.0605 2.42804L57.7722 4.62814Z" fill="#1C1C1C"/>
<path fill-rule="evenodd" clip-rule="evenodd" d="M70.6105 24.6821L58.0202 28.9941L70.5364 38.2559L70.6105 24.6821Z" fill="#1C1C1C"/>
<path fill-rule="evenodd" clip-rule="evenodd" d="M62.4155 13.0201L57.6482 28.0193L70.3126 23.9691L62.4155 13.0201Z" fill="#1C1C1C"/>
<path fill-rule="evenodd" clip-rule="evenodd" d="M50.8685 17.3702L56.8657 27.7194L61.4848 12.6077L50.8685 17.3702Z" fill="#1C1C1C"/>
<path fill-rule="evenodd" clip-rule="evenodd" d="M56.828 5.14581L50.9056 16.6199L61.4471 11.7454L56.828 5.14581Z" fill="#1C1C1C"/>
<path fill-rule="evenodd" clip-rule="evenodd" d="M54.2584 8.14575L50.049 16.7698L48.2982 16.6199L54.2584 8.14575Z" fill="#1C1C1C"/>
<path fill-rule="evenodd" clip-rule="evenodd" d="M49.7882 17.4821L48.2981 27.0071L48.0002 17.4821H49.7882Z" fill="#1C1C1C"/>
<path fill-rule="evenodd" clip-rule="evenodd" d="M61.7355 3.24892L70.3719 0.00134277V1.67703L61.7355 3.24892Z" fill="#1C1C1C"/>
</g>
<defs>
<clipPath id="clip0_26_60">
<rect width="46" height="48" fill="white" transform="translate(48)"/>
</clipPath>
</defs>
</svg>
