<svg width="189" height="141" viewBox="0 0 189 141" fill="none" xmlns="http://www.w3.org/2000/svg">
<path d="M9.512 133.384C7.95467 133.384 6.408 133.181 4.872 132.776C3.336 132.349 2.03467 131.752 0.968 130.984L2.984 127.016C3.83733 127.635 4.82933 128.125 5.96 128.488C7.09067 128.851 8.232 129.032 9.384 129.032C10.6853 129.032 11.7093 128.776 12.456 128.264C13.2027 127.752 13.576 127.048 13.576 126.152C13.576 125.299 13.2453 124.627 12.584 124.136C11.9227 123.645 10.856 123.4 9.384 123.4H7.016V119.976L13.256 112.904L13.832 114.76H2.088V110.6H17.768V113.96L11.56 121.032L8.936 119.528H10.44C13.192 119.528 15.272 120.147 16.68 121.384C18.088 122.621 18.792 124.211 18.792 126.152C18.792 127.411 18.4613 128.595 17.8 129.704C17.1387 130.792 16.1253 131.677 14.76 132.36C13.3947 133.043 11.6453 133.384 9.512 133.384ZM22.5935 133V110.6H32.7695C35.2015 110.6 37.3455 111.069 39.2015 112.008C41.0575 112.925 42.5082 114.216 43.5535 115.88C44.5988 117.544 45.1215 119.517 45.1215 121.8C45.1215 124.061 44.5988 126.035 43.5535 127.72C42.5082 129.384 41.0575 130.685 39.2015 131.624C37.3455 132.541 35.2015 133 32.7695 133H22.5935ZM27.7775 128.744H32.5135C34.0068 128.744 35.2975 128.467 36.3855 127.912C37.4948 127.336 38.3482 126.525 38.9455 125.48C39.5642 124.435 39.8735 123.208 39.8735 121.8C39.8735 120.371 39.5642 119.144 38.9455 118.12C38.3482 117.075 37.4948 116.275 36.3855 115.72C35.2975 115.144 34.0068 114.856 32.5135 114.856H27.7775V128.744ZM53.799 119.624H64.583V123.656H53.799V119.624ZM54.183 128.84H66.375V133H49.031V110.6H65.959V114.76H54.183V128.84ZM80.6118 115.528C81.9771 115.528 83.1931 115.805 84.2598 116.36C85.3478 116.893 86.2011 117.725 86.8198 118.856C87.4384 119.965 87.7478 121.395 87.7478 123.144V133H82.7558V123.912C82.7558 122.525 82.4464 121.501 81.8278 120.84C81.2304 120.179 80.3771 119.848 79.2678 119.848C78.4784 119.848 77.7638 120.019 77.1238 120.36C76.5051 120.68 76.0144 121.181 75.6518 121.864C75.3104 122.547 75.1398 123.421 75.1398 124.488V133H70.1478V115.784H74.9158V120.552L74.0198 119.112C74.6384 117.96 75.5238 117.075 76.6758 116.456C77.8278 115.837 79.1398 115.528 80.6118 115.528ZM96.6323 133L89.4002 115.784H94.5523L100.568 130.6H98.0083L104.248 115.784H109.048L101.784 133H96.6323ZM111.085 133V115.784H116.077V133H111.085ZM113.581 113.384C112.664 113.384 111.917 113.117 111.341 112.584C110.765 112.051 110.477 111.389 110.477 110.6C110.477 109.811 110.765 109.149 111.341 108.616C111.917 108.083 112.664 107.816 113.581 107.816C114.499 107.816 115.245 108.072 115.821 108.584C116.397 109.075 116.685 109.715 116.685 110.504C116.685 111.336 116.397 112.029 115.821 112.584C115.267 113.117 114.52 113.384 113.581 113.384ZM126.502 133.256C125.03 133.256 123.612 133.085 122.246 132.744C120.902 132.381 119.836 131.933 119.046 131.4L120.71 127.816C121.5 128.307 122.428 128.712 123.494 129.032C124.582 129.331 125.649 129.48 126.694 129.48C127.846 129.48 128.657 129.341 129.126 129.064C129.617 128.787 129.862 128.403 129.862 127.912C129.862 127.507 129.67 127.208 129.286 127.016C128.924 126.803 128.433 126.643 127.814 126.536C127.196 126.429 126.513 126.323 125.766 126.216C125.041 126.109 124.305 125.971 123.558 125.8C122.812 125.608 122.129 125.331 121.51 124.968C120.892 124.605 120.39 124.115 120.006 123.496C119.644 122.877 119.462 122.077 119.462 121.096C119.462 120.008 119.772 119.048 120.39 118.216C121.03 117.384 121.948 116.733 123.142 116.264C124.337 115.773 125.766 115.528 127.43 115.528C128.604 115.528 129.798 115.656 131.014 115.912C132.23 116.168 133.244 116.541 134.054 117.032L132.39 120.584C131.558 120.093 130.716 119.763 129.862 119.592C129.03 119.4 128.22 119.304 127.43 119.304C126.321 119.304 125.51 119.453 124.998 119.752C124.486 120.051 124.23 120.435 124.23 120.904C124.23 121.331 124.412 121.651 124.774 121.864C125.158 122.077 125.66 122.248 126.278 122.376C126.897 122.504 127.569 122.621 128.294 122.728C129.041 122.813 129.788 122.952 130.534 123.144C131.281 123.336 131.953 123.613 132.55 123.976C133.169 124.317 133.67 124.797 134.054 125.416C134.438 126.013 134.63 126.803 134.63 127.784C134.63 128.851 134.31 129.8 133.67 130.632C133.03 131.443 132.102 132.083 130.886 132.552C129.692 133.021 128.23 133.256 126.502 133.256ZM137.71 133V115.784H142.702V133H137.71ZM140.206 113.384C139.289 113.384 138.542 113.117 137.966 112.584C137.39 112.051 137.102 111.389 137.102 110.6C137.102 109.811 137.39 109.149 137.966 108.616C138.542 108.083 139.289 107.816 140.206 107.816C141.124 107.816 141.87 108.072 142.446 108.584C143.022 109.075 143.31 109.715 143.31 110.504C143.31 111.336 143.022 112.029 142.446 112.584C141.892 113.117 141.145 113.384 140.206 113.384ZM155.527 133.256C153.693 133.256 152.061 132.872 150.631 132.104C149.223 131.336 148.103 130.291 147.271 128.968C146.461 127.624 146.055 126.099 146.055 124.392C146.055 122.664 146.461 121.139 147.271 119.816C148.103 118.472 149.223 117.427 150.631 116.68C152.061 115.912 153.693 115.528 155.527 115.528C157.341 115.528 158.962 115.912 160.391 116.68C161.821 117.427 162.941 118.461 163.751 119.784C164.562 121.107 164.967 122.643 164.967 124.392C164.967 126.099 164.562 127.624 163.751 128.968C162.941 130.291 161.821 131.336 160.391 132.104C158.962 132.872 157.341 133.256 155.527 133.256ZM155.527 129.16C156.359 129.16 157.106 128.968 157.767 128.584C158.429 128.2 158.951 127.656 159.335 126.952C159.719 126.227 159.911 125.373 159.911 124.392C159.911 123.389 159.719 122.536 159.335 121.832C158.951 121.128 158.429 120.584 157.767 120.2C157.106 119.816 156.359 119.624 155.527 119.624C154.695 119.624 153.949 119.816 153.287 120.2C152.626 120.584 152.093 121.128 151.687 121.832C151.303 122.536 151.111 123.389 151.111 124.392C151.111 125.373 151.303 126.227 151.687 126.952C152.093 127.656 152.626 128.2 153.287 128.584C153.949 128.968 154.695 129.16 155.527 129.16ZM178.768 115.528C180.133 115.528 181.349 115.805 182.416 116.36C183.504 116.893 184.357 117.725 184.976 118.856C185.595 119.965 185.904 121.395 185.904 123.144V133H180.912V123.912C180.912 122.525 180.603 121.501 179.984 120.84C179.387 120.179 178.533 119.848 177.424 119.848C176.635 119.848 175.92 120.019 175.28 120.36C174.661 120.68 174.171 121.181 173.808 121.864C173.467 122.547 173.296 123.421 173.296 124.488V133H168.304V115.784H173.072V120.552L172.176 119.112C172.795 117.96 173.68 117.075 174.832 116.456C175.984 115.837 177.296 115.528 178.768 115.528Z" fill="white"/>
<g clip-path="url(#clip0_26_61)">
<path fill-rule="evenodd" clip-rule="evenodd" d="M67.9876 52.4882L54.0976 57.316L57.3839 34.9871L67.9876 52.4882Z" fill="white"/>
<path fill-rule="evenodd" clip-rule="evenodd" d="M70.6762 75.5719L54.6953 59.7299L68.5854 54.9021L70.6762 75.5719Z" fill="white"/>
<path fill-rule="evenodd" clip-rule="evenodd" d="M70.6762 78.5896L59.0265 66.5188L69.1831 80.0978L70.6762 78.5896Z" fill="white"/>
<path fill-rule="evenodd" clip-rule="evenodd" d="M70.3774 81.3055L72.7671 79.0413L88.3009 87.0377L70.3774 81.3055Z" fill="white"/>
<path fill-rule="evenodd" clip-rule="evenodd" d="M93.8276 72.2524L72.6189 77.0802L70.6762 55.2041L93.8276 72.2524Z" fill="white"/>
<path fill-rule="evenodd" clip-rule="evenodd" d="M94.8736 89V74.0637L74.8592 78.1368L94.8736 89Z" fill="white"/>
<path fill-rule="evenodd" clip-rule="evenodd" d="M117.725 78.2877L96.6656 89V73.6108L117.725 78.2877Z" fill="white"/>
<path fill-rule="evenodd" clip-rule="evenodd" d="M120.862 81.3053L102.79 87.4904L119.966 78.7405L120.862 81.3053Z" fill="white"/>
<path fill-rule="evenodd" clip-rule="evenodd" d="M122.151 80.6023L121.083 78.0488L133.043 65.7981L122.151 80.6023Z" fill="white"/>
<path fill-rule="evenodd" clip-rule="evenodd" d="M119.486 77.3558L97.5261 72.499L121.208 55.1023L119.486 77.3558Z" fill="white"/>
<path fill-rule="evenodd" clip-rule="evenodd" d="M137.139 59.4507L121.065 75.7606L123.002 54.8845L137.139 59.4507Z" fill="white"/>
<path fill-rule="evenodd" clip-rule="evenodd" d="M137.354 57.3487L123.504 52.6366L134.34 34.4424L137.354 57.3487Z" fill="white"/>
<path fill-rule="evenodd" clip-rule="evenodd" d="M138 32.6299L137.641 47.4907L135.632 32.7758L138 32.6299Z" fill="white"/>
<path fill-rule="evenodd" clip-rule="evenodd" d="M137.611 30.8863L134.843 31.036L127.307 16.7551L137.611 30.8863Z" fill="white"/>
<path fill-rule="evenodd" clip-rule="evenodd" d="M133.45 32.6614L122.259 51.2015L113.419 23.958L133.45 32.6614Z" fill="white"/>
<path fill-rule="evenodd" clip-rule="evenodd" d="M132.387 30.1179L113.531 21.6962L122.371 9.5437L132.387 30.1179Z" fill="white"/>
<path fill-rule="evenodd" clip-rule="evenodd" d="M120.748 8.75366L111.74 20.51L97.6382 4.68311L120.748 8.75366Z" fill="white"/>
<path fill-rule="evenodd" clip-rule="evenodd" d="M95.7366 5.02271L110.005 21.3012H81.524L95.7366 5.02271Z" fill="white"/>
<path fill-rule="evenodd" clip-rule="evenodd" d="M114.887 6.12344L96.8536 2.92587L96.8698 0L114.887 6.12344Z" fill="white"/>
<path fill-rule="evenodd" clip-rule="evenodd" d="M120.456 53.463L96.6033 70.8862L96.6569 46.0188L120.456 53.463Z" fill="white"/>
<path fill-rule="evenodd" clip-rule="evenodd" d="M111.777 23.8547L120.401 51.7536L97.2584 44.2553L111.777 23.8547Z" fill="white"/>
<path fill-rule="evenodd" clip-rule="evenodd" d="M80.9923 22.8623L95.8935 42.766L110.085 23.1378L80.9923 22.8623Z" fill="white"/>
<path fill-rule="evenodd" clip-rule="evenodd" d="M71.0573 8.58131L79.5726 20.3804L93.7641 4.50195L71.0573 8.58131Z" fill="white"/>
<path fill-rule="evenodd" clip-rule="evenodd" d="M94.7802 45.7649L71.5156 53.7601L94.6432 70.9329L94.7802 45.7649Z" fill="white"/>
<path fill-rule="evenodd" clip-rule="evenodd" d="M79.6374 24.1416L70.8282 51.9525L94.2298 44.4428L79.6374 24.1416Z" fill="white"/>
<path fill-rule="evenodd" clip-rule="evenodd" d="M58.3005 32.2071L69.3824 51.3964L77.9176 23.3767L58.3005 32.2071Z" fill="white"/>
<path fill-rule="evenodd" clip-rule="evenodd" d="M69.3126 9.54126L58.369 30.8161L77.8479 21.7781L69.3126 9.54126Z" fill="white"/>
<path fill-rule="evenodd" clip-rule="evenodd" d="M64.5643 15.1035L56.7862 31.0939L53.5509 30.8159L64.5643 15.1035Z" fill="white"/>
<path fill-rule="evenodd" clip-rule="evenodd" d="M56.3043 32.4148L53.5509 50.0757L53.0005 32.4148H56.3043Z" fill="white"/>
<path fill-rule="evenodd" clip-rule="evenodd" d="M78.3809 6.024L94.3394 0.00244141V3.10945L78.3809 6.024Z" fill="white"/>
</g>
<defs>
<clipPath id="clip0_26_61">
<rect width="85" height="89" fill="white" transform="translate(53)"/>
</clipPath>
</defs>
</svg>
