<svg width="38" height="38" viewBox="0 0 38 38" fill="none" xmlns="http://www.w3.org/2000/svg">
<path fill-rule="evenodd" clip-rule="evenodd" d="M37.3332 19C37.3332 8.87446 29.1253 0.666626 18.9998 0.666626C8.87434 0.666626 0.666504 8.87446 0.666504 19C0.666504 29.1255 8.87434 37.3333 18.9998 37.3333C29.1253 37.3333 37.3332 29.1255 37.3332 19ZM12.5282 18.1383C12.2707 17.8805 12.126 17.531 12.126 17.1666C12.126 16.8023 12.2707 16.4528 12.5282 16.195L18.0282 10.695C18.286 10.4375 18.6355 10.2928 18.9998 10.2928C19.3642 10.2928 19.7137 10.4375 19.9715 10.695L25.4715 16.195C25.6066 16.3208 25.715 16.4726 25.7901 16.6413C25.8653 16.81 25.9057 16.992 25.9089 17.1767C25.9122 17.3613 25.8782 17.5447 25.8091 17.7159C25.7399 17.8871 25.637 18.0426 25.5064 18.1732C25.3758 18.3038 25.2203 18.4067 25.0491 18.4759C24.8779 18.545 24.6945 18.579 24.5099 18.5757C24.3253 18.5725 24.1432 18.532 23.9745 18.4569C23.8059 18.3817 23.6541 18.2734 23.5282 18.1383L20.3748 14.985V26.3333C20.3748 26.698 20.23 27.0477 19.9721 27.3056C19.7142 27.5634 19.3645 27.7083 18.9998 27.7083C18.6352 27.7083 18.2854 27.5634 18.0276 27.3056C17.7697 27.0477 17.6248 26.698 17.6248 26.3333V14.985L14.4715 18.1383C14.2137 18.3958 13.8642 18.5404 13.4998 18.5404C13.1355 18.5404 12.786 18.3958 12.5282 18.1383Z" fill="white"/>
</svg>
